<?xml version="1.0" encoding="utf-8"?>
<!-- Generator: Adobe Illustrator 25.0.0, SVG Export Plug-In . SVG Version: 6.00 Build 0)  -->
<svg version="1.1" id="Layer_1" xmlns="http://www.w3.org/2000/svg" xmlns:xlink="http://www.w3.org/1999/xlink" x="0px" y="0px"
	 viewBox="0 0 100 100" style="enable-background:new 0 0 100 100;" xml:space="preserve">
<style type="text/css">
	.st0{fill:#8D60F7;}
	.st1{fill:#F578A6;}
	.st2{fill:#F35790;}
	.st3{fill:#8C65F7;}
	.st4{fill:#FFFFFF;}
	.st5{fill:#5932C4;}
	.st6{fill:#02E2AC;}
	.st7{fill:#5BF1CD;}
	.st8{fill:#F579A6;}
	.st9{fill:#6F3FF5;}
	.st10{fill:#CAFFF0;}
	.st11{fill:#14BD92;}
	.st12{fill:#5CF2CD;}
	.st13{fill:#25E899;}
</style>
<g id="Layer_63_8_">
	<polygon class="st0" points="93.3,25 93.3,75 50,100 15.4,80 15.2,79.9 6.7,75 6.7,25 50,0 	"/>
</g>
<path class="st1" d="M50,8.1L14,29.4l0,41.5l35.9,21l35.9-21l0-42.1L50,8.1z M84.6,70.1L50.1,90.2L15.6,70.1l0-39.9L50.1,9.8
	l34.5,19.9L84.6,70.1z"/>
<g>
	<g>
		<path class="st2" d="M75,29.6c-7.6-8.1-19.3-2.4-23,2l0,0c0,0,0,0,0,0l0.2,14c0.2,0,0.4-0.1,0.6-0.1c2.1,0,3.9,1.9,3.9,4.2
			c0,2.4-1.7,4.3-3.8,4.3c-0.2,0-0.4,0-0.6,0l0.3,20.9c0.8-0.4,7.7-4.1,12.7-9.4c1-1,1.9-2.1,2.9-3.2c5.6-6.5,11.1-14.7,10.8-23.2
			C78.9,35.6,77.5,32.2,75,29.6z"/>
	</g>
	<g>
		<g>
			<path class="st2" d="M47.5,45.8c-0.2,0-0.4,0-0.6,0.1l-0.1-14c0,0,0,0-0.1,0.1c-3.8-4.3-15.7-9.9-23.1-1.6
				c-7.5,8.3-3.3,18.2,5.7,30.3S47,75.1,47,75.1s0,0,0.1,0l-0.1-20.9c0.2,0,0.4,0.1,0.6,0.1c2.1,0,3.9-1.9,3.9-4.3
				C51.4,47.6,49.6,45.7,47.5,45.8z"/>
		</g>
	</g>
</g>
<g>
	<g>
		<g id="eydlib7ehv144">
			<g id="eydlib7ehv145">
				<path id="eydlib7ehv146" class="st3" d="M53.3,51.1c0.5,0.3,0.6,0.3,0.7,0.4c0.1,0.1,0.1,0.3,0,0.6c0,0.2-0.1,0.4-0.3,0.8
					c0,0-0.2,0.3-0.5,0.8c0,0.1-0.1,0.1-0.2,0.1s-0.1,0-0.2,0c-0.2,0-0.4-0.1-0.6-0.2c-0.1,0-0.2-0.1-0.2-0.1
					c-0.2,0-0.3,0.1-0.4,0.1c-0.1,0-0.2,0-0.3,0c-0.2-0.1-0.4-0.1-0.6-0.1c-0.1,0-0.2-0.1-0.3-0.1c-0.1-0.1-0.2-0.2-0.2-0.3
					c-0.1-0.2,0.1-0.4,0.1-0.6s0-0.4,0.1-0.6c0.1-0.2,0.1-0.3,0.1-0.4c0.1-0.3,0.2-0.7,0.3-1c0-0.1,0-0.1,0.1-0.1H51
					c0.2,0,0.3,0.1,0.4,0.1c0.2,0.1,0.4,0.2,0.6,0.2c0.1,0,0.1,0,0.1,0s0-0.1,0.1-0.1c0.1-0.1,0.2-0.1,0.3,0
					C52.6,50.7,53,50.9,53.3,51.1z"/>
				<g id="eydlib7ehv147">
					<path id="eydlib7ehv148" class="st4" d="M53.6,52.8c-0.3,0.5-0.7,0.6-0.6,0.8c0.1,0.3,0.6,0.3,1.6,0.8c0.9,0.4,1.4,0.9,1.9,0.8
						c0.2,0,0.3-0.2,0.5-0.2c0.3-0.2,0.7-0.3,0.8-0.4c0.3-0.3,0.3-0.5,0.9-1.6c0.2-0.4,0.4-0.8,0.8-1.2c0.3-0.4,0.5-0.8,0.7-1
						c0.1,0.5,0.2,1,0.3,1.5c0.2,1.2,0.3,2.4,0.3,3.5c0,0.3,0,0.6,0,1c0,0.9,0.1,1.4,0.1,1.9c0,0.3-0.1,0.6-0.2,1.5
						c-0.3,2.3-0.3,2.3-0.4,3.1c-0.2,1.9,0.3,1.5,0.1,3c-0.1,0.8-0.3,1.8-0.1,3c0.1,0.2,0.1,0.3,0.2,0.4c0.4-0.1,0.7-0.1,0.9-0.2
						c0.4-0.1,0.7-0.1,0.8-0.1c0.3,0.1,0.5,0.3,0.7,0.2c0.2-0.1,0.2-0.5,0.2-0.7c-0.1-0.8,0.2-1.8,0.7-3.7c0.1-0.3,0.3-1.1,0.8-2.1
						c0.3-0.8,0.8-1.6,1.1-2.1c0.2-0.1,0.3-0.1,0.3-0.1c0.4,0,0.7,3,0.8,4.4c0.1,0.6,0.1,1.2,0.1,1.9c0,0.3,0,0.6,0.1,1.2
						c0.1,0.4,0.1,0.5,0.2,0.6c0.3,0.3,1.2,0.1,1.7,0.1c0.1,0,0.3-0.1,0.3-0.2c0.1-0.1,0.2-0.3,0.2-0.3c0.6-1.9,0.3-2.8,0.5-3.7
						c0.1-0.5,0.5-1.4,0.6-1.9c0.2-1.9,0,0.2,0.1-1.8c0.1-1,0.1-2.3,0.2-4c0-1.7-0.2-2.1-0.2-4.4c0-1.4,0.4-2.3,0.4-3
						c0.3,0.1,0.4,0.2,0.7,0.3c-0.3,0.5-0.4,0.4-0.7,0.8c-0.1,0.1-0.3,0.8-0.3,0.9c0.1,0.2,0.2,0.1,0.3,0.3c0.3,0.2,0.8,0.8,0.8,1.7
						c0.6-0.6,1.1-1.1,1.4-1.4c0.8-0.9,0.8-1.4,0.8-1.5c0.1-0.6-0.1-1.1-0.2-1.4c-0.3-0.7-0.7-1-1.2-1.5c-0.5-0.4-1-0.8-2.4-1.9
						c-0.1-0.1-0.2-0.2-0.3-0.3c-0.3-0.5-0.3-1.2-0.2-1.8c0,0,0.1-1.4-0.2-2.5c-0.1-0.5-0.3-1.2-0.8-1.8c-1.4-1.4-4.3-1-5.4-0.1
						c-0.7,0.5-1.3,1.3-1.3,1.3c-0.2,0.3-0.3,0.4-0.4,0.6c0,0.1-0.9,1.7-0.5,3.3c0.1,0.2,0.2,0.4,0,0.6c-0.2,0.3-0.6,0.3-0.9,0.3
						c-0.2,0.1-0.4,0.1-0.6,0.3s-0.1,0.4-0.2,0.4c-0.2,0.2-0.5,0.3-0.6,0.3c-0.8,1.7-1.9,3.1-2.7,4.7c-0.1,0.1-0.1,0.2-0.3,0.3
						c-0.6,0.4-1.4-0.8-2-0.5C54,51.7,54,52.3,53.6,52.8z"/>
					<path id="eydlib7ehv149" class="st5" d="M64.9,50.6c0-1.1,0.8-1.9,1.9-1.9c1,0,1.9,0.8,1.9,1.9s-0.8,1.9-1.9,1.9
						C65.7,52.6,64.9,51.7,64.9,50.6z M65,50.6c0,1,0.8,1.8,1.7,1.8s1.7-0.8,1.7-1.8c0-1-0.8-1.8-1.7-1.8C65.8,48.9,65,49.6,65,50.6
						z"/>
					<path id="eydlib7ehv150" class="st6" d="M60.3,50.6l0.3,2.7l0.3,3L60.2,56c-0.3-0.1-0.4-0.3-0.5-0.6l-0.4-3L60.3,50.6z"/>
					<path id="eydlib7ehv151" class="st3" d="M71.3,52.3c0.3,0.3,0.5,0.5,0.5,0.9c0.1,0.3,0,0.5-0.1,0.7c-0.8,0.8-1,0.8-1.1,0.8
						c-0.1-0.1,0-0.3,0-0.8c0-0.9-0.1-1.4-0.1-1.4c0-0.1-0.1-0.4,0.1-0.4c0.1,0,0.1,0,0.1,0C71,52,71.2,52.2,71.3,52.3z"/>
					<path id="eydlib7ehv152" class="st5" d="M60.1,56.1c-0.3-0.1-0.6-0.4-0.6-0.8l-0.4-3h0.2l0.4,3c0.1,0.3,0.3,0.5,0.5,0.6
						l0.8,0.3L61,56.5L60.1,56.1z"/>
					<path id="eydlib7ehv153" class="st7" d="M57.9,54.6l-0.3,0.2l-0.3-0.2l-0.1,0.3l-0.3,0.3c-0.1,0.1-0.1,0.2-0.1,0.2l0.1,0.3
						l0.1,0.1c0.1,0,0.1,0,0.1,0l1.1-0.6c0.1-0.1,0.1-0.2,0.1-0.2L58,54.8C58,54.6,57.9,54.5,57.9,54.6
						C57.9,54.5,57.9,54.6,57.9,54.6z"/>
					<path id="eydlib7ehv154" class="st7" d="M74.4,49.5h-0.2c-0.1,0-0.1,0.1-0.1,0.1V50l-0.3,0.2l0.3,0.2l0.1,0.3
						c0,0.1,0.1,0.1,0.1,0.1h0.2c0.1,0,0.1,0,0.1-0.1v-0.1l-0.1-0.9C74.5,49.6,74.5,49.5,74.4,49.5L74.4,49.5L74.4,49.5z"/>
					<path id="eydlib7ehv155" class="st8" d="M63.6,49.9C63.6,50,63.5,50,63.6,49.9l-0.1,1.7c0,0.1,0,0.1,0.1,0.1
						c0.1,0,0.1,0.1,0.1,0.1h0.4c0.1,0,0.2-0.1,0.2-0.2V50c0-0.1-0.1-0.2-0.2-0.2L63.6,49.9C63.7,49.9,63.6,49.9,63.6,49.9z"/>
					<path id="eydlib7ehv156" class="st8" d="M63.3,49.8h-0.3c0,0,0,0-0.1,0c0,0.1-0.1,0.1-0.1,0.2v1.6c0,0.1,0.1,0.2,0.1,0.2h0.3
						c0,0,0,0,0.1,0c0-0.1,0.1-0.1,0.1-0.2V50C63.3,49.9,63.3,49.8,63.3,49.8z"/>
					<path id="eydlib7ehv157" class="st5" d="M56.8,55.9c-0.1,0-0.2-0.1-0.2-0.2l-0.2-0.3c-0.1-0.2,0-0.3,0.1-0.4l0.3-0.2l0.1-0.5
						l0.4,0.3l0.3-0.2c0.2-0.1,0.3,0,0.4,0.2l0.1,0.2c0.1,0.2,0,0.3-0.2,0.4L57,55.8C57,55.8,57,55.9,56.8,55.9
						C56.9,55.9,56.8,55.9,56.8,55.9z M57.9,54.6l-0.3,0.2l-0.3-0.2l-0.1,0.3l-0.3,0.3c-0.1,0.1-0.1,0.2-0.1,0.2l0.1,0.3l0.1,0.1
						c0.1,0,0.1,0,0.1,0l1.1-0.6c0.1-0.1,0.1-0.2,0.1-0.2L58,54.8C58,54.6,57.9,54.5,57.9,54.6C57.9,54.5,57.9,54.6,57.9,54.6z"/>
					<path id="eydlib7ehv158" class="st5" d="M74,50.6l-0.1-0.3l-0.3-0.3l0.3-0.3v-0.3c0-0.1,0.1-0.3,0.3-0.3h0.2
						c0.2,0,0.3,0.1,0.3,0.3l0.1,0.9c0,0.1,0,0.2-0.1,0.2c0,0.1-0.1,0.1-0.2,0.1h-0.3C74.1,50.9,74,50.8,74,50.6z M74.4,49.5h-0.2
						c-0.1,0-0.1,0.1-0.1,0.1V50l-0.3,0.2l0.3,0.2l0.1,0.3c0,0.1,0.1,0.1,0.1,0.1h0.2c0.1,0,0.1,0,0.1-0.1v-0.1l-0.1-0.9
						C74.5,49.6,74.5,49.5,74.4,49.5L74.4,49.5L74.4,49.5z"/>
					<path id="eydlib7ehv159" class="st5" d="M63.5,51.8c-0.1-0.1-0.1-0.2-0.1-0.3V50c0-0.1,0.1-0.2,0.1-0.3
						c0.1-0.1,0.2-0.1,0.3-0.1h0.4c0.2,0,0.3,0.2,0.3,0.3v1.6c0,0.2-0.2,0.3-0.3,0.3h-0.4C63.6,51.9,63.5,51.8,63.5,51.8z
						 M63.6,49.9C63.6,50,63.5,50,63.6,49.9l-0.1,1.7c0,0.1,0,0.1,0.1,0.1c0.1,0,0.1,0.1,0.1,0.1h0.4c0.1,0,0.2-0.1,0.2-0.2V50
						c0-0.1-0.1-0.2-0.2-0.2L63.6,49.9C63.7,49.9,63.6,49.9,63.6,49.9z"/>
					<path id="eydlib7ehv160" class="st5" d="M62.9,51.8c-0.2,0-0.3-0.2-0.3-0.3v-1.6c0-0.1,0.1-0.2,0.1-0.3c0,0,0.1-0.1,0.2-0.1
						h0.3c0.2,0,0.3,0.2,0.3,0.3v1.6c0,0.1-0.1,0.2-0.1,0.3c-0.1,0-0.1,0.1-0.2,0.1H62.9z M63.3,49.8h-0.3c0,0,0,0-0.1,0
						c0,0.1-0.1,0.1-0.1,0.2v1.6c0,0.1,0.1,0.2,0.1,0.2h0.3c0,0,0,0,0.1,0c0-0.1,0.1-0.1,0.1-0.2V50C63.3,49.9,63.3,49.8,63.3,49.8z
						"/>
					<path id="eydlib7ehv161" class="st5" d="M69.7,64.5c0.7-0.8,0.7-2.1,0.7-2.1l0.3-5.2h0.2l-0.3,5.2c0,0.1,0,1.4-0.7,2.2
						L69.7,64.5z"/>
					<path id="eydlib7ehv162" class="st5" d="M66.9,68.7l-0.2-3.6h0.2l0.2,3.6l0.1,0.2l1.9-0.1l0.2-0.2l0.6-4.2H70l-0.6,4.3
						l-0.2,0.3l-2.1,0.1L66.9,68.7z"/>
					<path id="eydlib7ehv163" class="st5" d="M63.8,64.6l0.3-0.1c0.8-2.5,2.4-4.6,2.4-4.6l0.2,0.1c0,0-1.6,2.1-2.4,4.6v0.1l-0.4,0.1
						L63.8,64.6z"/>
					<path id="eydlib7ehv164" class="st5" d="M63.2,69.6c0.2-2.9,0.8-5.1,0.8-5.1l0.2,0.1c0,0.1-0.7,2.2-0.8,5.1L63.2,69.6z"/>
					<path id="eydlib7ehv165" class="st5" d="M60.4,69.2L60.4,69.2c0-0.1-0.1-1.9,0.3-5.2h0.2c-0.3,3.1-0.3,4.9-0.3,5.1l0.3,0.3
						l-0.2,0.1L60.4,69.2z"/>
					<path id="eydlib7ehv166" class="st5" d="M60.5,63.9L60.5,63.9c0.2-3.3,0.6-5.7,0.6-5.7h0.2c0,0-0.4,2.4-0.6,5.6l0.3,0.3
						l-0.2,0.2L60.5,63.9z"/>
					<path id="eydlib7ehv167" class="st5" d="M70.4,51.9l0.1,3.6h0.2l-0.1-3.6H70.4L70.4,51.9z"/>
					<path id="eydlib7ehv168" class="st5" d="M60.7,54.2l0.3,2.7h0.2l-0.3-2.7H60.7z"/>
					<path id="eydlib7ehv169" class="st5" d="M57.9,54.5l2.2-3.8c0.1-0.1,0.2-0.1,0.2-0.1c0.1,0,0.2,0.1,0.2,0.2l0.3,2.5h-0.2
						l-0.3-2.6l0,0l0,0l-2.2,3.8L57.9,54.5z"/>
					<path id="eydlib7ehv170" class="st5" d="M63.5,47.3c-0.1-0.1-1.6-0.7-2.2-1.8l0,0v-0.8h0.2v0.7c0.6,1.1,2.1,1.7,2.1,1.7
						c4.9,1.6,6.2-1.5,6.3-1.6c0-0.1,1.1-5.9-2.3-6.7c-3.4-0.8-5,1.7-5.1,1.8l-0.2-0.1c0,0,1.7-2.5,5.2-1.8c3.5,0.8,2.4,6.8,2.4,6.9
						c0,0-0.9,2.2-3.9,2.2C65.3,47.8,64.4,47.6,63.5,47.3z"/>
					<path id="eydlib7ehv171" class="st5" d="M65.3,46.8L65.3,46.8c-1.4-0.2-3.2-0.5-4.2-2.2c0-0.1-0.6-0.8,0.3-3.1
						c0.1-0.3,0.3-0.4,0.7-0.4h0.2v0.1c0,0,1,1.4,4.2,1.4c0,0,0,0,0.1,0c0,0,0.2,0,0.4,0.3c0.3,0.3,0.3,0.9,0.2,1.9
						c0,0.2-0.1,0.3-0.1,0.4c-0.3,1.4-0.3,1.9-1.2,1.9C65.6,46.8,65.5,46.8,65.3,46.8z M66.4,42.5c-3,0-4.1-1.2-4.3-1.4H62
						c-0.3,0-0.4,0.2-0.5,0.3c-0.8,2.2-0.3,3-0.3,3c1,1.6,2.8,1.9,4.1,2.1h0.1c1.2,0.2,1.2-0.1,1.5-1.7c0-0.2,0-0.3,0.1-0.4
						c0.2-1.1,0-1.5-0.2-1.7C66.6,42.6,66.5,42.5,66.4,42.5C66.5,42.5,66.5,42.5,66.4,42.5z"/>
					<path id="eydlib7ehv172" class="st5" d="M66.2,47.3c-2.2,0-3.8-0.7-4.9-1.9l0.1-0.1C62.5,46.6,64.1,47.3,66.2,47.3L66.2,47.3
						c0.8-0.1,1.1-0.8,1.4-3.2c0.2-1,0.1-1.5-0.1-1.8S66.8,42,66.1,42c-0.3,0-0.5,0-0.8-0.1c-1.9-0.3-2.8-1.1-3-1.3
						c-0.1,0.1-0.1,0.1-0.1,0.1c0,0.1,0,0.3,0.1,0.3l-0.2,0.1c0,0-0.1-0.3-0.1-0.4c0-0.1,0.1-0.2,0.3-0.2h0.1l0.1,0.1
						c0,0,0.9,0.9,3,1.2c0.3,0,0.5,0.1,0.8,0.1c0.8,0.1,1.2,0.1,1.4,0.4c0.3,0.3,0.3,0.8,0.2,1.9C67.4,46.4,67.1,47.3,66.2,47.3
						C66.2,47.3,66.1,47.3,66.2,47.3z"/>
					<path id="eydlib7ehv173" class="st6" d="M60.1,45.8L59.6,46c-0.1,0-0.1,0.1-0.1,0.2c0,0.1,0,0.2,0.1,0.2
						c0.6,0.4,2.2,1.6,2.2,4.6c0,0.1-0.3,1.9-1,2.4c-0.2,0.1-0.2,0.2-0.2,0.3v0.3c0,0.1,0.1,0.2,0.1,0.2c0.1,0,0.2,0,0.3,0
						c0.4-0.3,1.6-1.3,1.6-3.5c0-2.4-1.7-4.1-2.3-4.6C60.2,45.8,60.2,45.7,60.1,45.8C60.2,45.8,60.2,45.8,60.1,45.8z"/>
					<path id="eydlib7ehv174" class="st5" d="M60.8,54.2c-0.2-0.1-0.2-0.2-0.2-0.3v-0.3c0-0.2,0.1-0.3,0.3-0.3
						c0.7-0.3,0.9-2.3,0.9-2.3c0-2.9-1.6-4-2.1-4.4c-0.1-0.1-0.2-0.2-0.2-0.3s0.1-0.3,0.2-0.3l0.5-0.2c0.2-0.1,0.3-0.1,0.4,0.1
						c0.6,0.6,2.3,2.3,2.3,4.7c0,2.4-1.4,3.5-1.7,3.7c-0.1,0.1-0.2,0.1-0.3,0.1C60.8,54.3,60.8,54.3,60.8,54.2z M60.1,45.8L59.6,46
						c-0.1,0-0.1,0.1-0.1,0.2c0,0.1,0,0.2,0.1,0.2c0.6,0.4,2.2,1.6,2.2,4.6c0,0.1-0.3,1.9-1,2.4c-0.2,0.1-0.2,0.2-0.2,0.3v0.3
						c0,0.1,0.1,0.2,0.1,0.2c0.1,0,0.2,0,0.3,0c0.4-0.3,1.6-1.3,1.6-3.5c0-2.4-1.7-4.1-2.3-4.6C60.2,45.8,60.2,45.7,60.1,45.8
						C60.2,45.8,60.2,45.8,60.1,45.8z"/>
					<path id="eydlib7ehv175" class="st5" d="M55.8,52l3.1-5.3l0.5-0.3l0.1,0.2l-0.4,0.3L56,52.2L55.8,52z"/>
					<path id="eydlib7ehv176" class="st5" d="M51.9,53.5l1,0.3l0.1-0.2l-1.1-0.3V53.5z"/>
					<path id="eydlib7ehv177" class="st5" d="M52,52.2L51.7,52c-0.1-0.1-0.2-0.2-0.2-0.3c0-0.1,0-0.2,0.1-0.3l0.4-0.7
						c0.1-0.2,0.3-0.3,0.5-0.2l1.5,0.7L54,51.4l-1.5-0.7c-0.1-0.1-0.3,0-0.3,0.1l-0.5,0.7c0,0.1-0.1,0.1,0,0.2
						c0,0.1,0.1,0.1,0.1,0.2l0.3,0.2c0.1,0.1,0.1,0.1,0.2,0c0.1,0,0.1-0.1,0.2-0.1l0.2-0.3l0.2,0.1L52.6,52
						c-0.1,0.1-0.2,0.2-0.3,0.2s-0.1,0-0.1,0C52.2,52.2,52.2,52.2,52,52.2z"/>
					<path id="eydlib7ehv178" class="st5" d="M51.7,53.6l-1.2-0.2c-0.1,0-0.2-0.1-0.3-0.2c-0.1-0.1-0.1-0.2-0.1-0.3l0.5-2.4
						c0.1-0.1,0.1-0.2,0.2-0.3c0.1-0.1,0.3-0.1,0.3,0l0.9,0.4L52,50.8l-0.9-0.4c-0.1-0.1-0.2-0.1-0.2,0c-0.1,0-0.1,0.1-0.1,0.2
						L50.3,53c0,0.1,0,0.2,0.1,0.2c0,0.1,0.1,0.1,0.2,0.1l1.1,0.2c0.1,0,0.3-0.1,0.3-0.2l0.2-1.2l0.2,0.1l-0.2,1.2
						C52,53.5,51.9,53.6,51.7,53.6L51.7,53.6z"/>
					<path id="eydlib7ehv179" class="st5" d="M53.1,53.9c-0.1,0-0.2-0.1-0.2-0.2c0-0.1,0-0.2,0.1-0.3c0.8-0.7,0.8-1.6,0.8-2.1
						c0-0.1,0.1-0.2,0.1-0.3c0.1-0.1,0.2-0.1,0.3,0l2.1,1l-0.1,0.2l-2.1-1H54l-0.1,0.1c0.1,0.5-0.1,1.5-0.8,2.2
						c-0.1,0-0.1,0.1-0.1,0.1s0,0.1,0.1,0.1l3.5,1.5l-0.1,0.2L53.1,53.9z"/>
					<path id="eydlib7ehv180" class="st6" d="M69.4,46.3c1.4,1.4,1.2,4.8,1.1,5.5l0.2-0.1c0.7-3.7-0.5-5.8-0.7-6.1l-0.2-0.1
						L69.4,46.3z"/>
					<path id="eydlib7ehv181" class="st5" d="M70.4,51.9c0-0.1,0.3-4.1-1.1-5.5l0.1-0.1C70.7,47.8,70.5,51.1,70.4,51.9l0.3-0.2
						c0.7-3.7-0.5-5.8-0.7-6.1l-0.2-0.1l0.1-0.2l0.3,0.1l0,0c0,0,1.5,2.3,0.7,6.3v0.1l-0.5,0.2L70.4,51.9L70.4,51.9z"/>
					<path id="eydlib7ehv182" class="st5" d="M70.4,46.3l0.1-0.2c0,0,2.4,1.2,3.8,3.3l-0.2,0.1C72.7,47.4,70.4,46.3,70.4,46.3z"/>
					<path id="eydlib7ehv183" class="st5" d="M71.6,53.8c0-0.1,0.3-1.4-1.1-1.9l0.1-0.2c1.2,0.4,1.3,1.4,1.3,1.8
						c1.6-1.4,2.4-2.9,2.4-2.9l0.2,0.1c0,0-0.8,1.7-2.5,3.1l-0.2,0.2L71.6,53.8z"/>
					<path id="eydlib7ehv184" class="st5" d="M71,50.9L71,50.9l1.2-1.1L72,49.7L71,50.9z"/>
					<path id="eydlib7ehv185" class="st5" d="M71,49.9l0.7,0.3l0.1-0.2L71,49.7L71,49.9z"/>
					<path id="eydlib7ehv186" class="st5" d="M70.5,54.6l0.1,0.2l1.1-0.8l-0.1-0.2L70.5,54.6z"/>
					<path id="eydlib7ehv187" class="st9" d="M61,69.4C61,69.5,61,69.4,61,69.4c0.6-0.2,1.2-0.2,1.8-0.1c0.1,0,0.1,0,0.1,0.1
						c0,0,0.1,0,0.1,0.1c0.1,0.1,0.2,0.1,0.3,0.2c0.1,0.1,0.3,0.1,0.3,0.2c0,0.1,0.2,0.2,0.2,0.3c0.1,0.2,0.1,0.3,0.2,0.5
						c0,0.2,0.1,0.3,0.1,0.4c0,0.2,0,0.3-0.1,0.4h-2.5c-0.4,0-0.8,0-1.3,0h-0.1l0,0c0.1-0.4,0.2-0.9,0.3-1.4
						c0.1-0.1,0.1-0.2,0.2-0.3C60.7,69.6,60.9,69.6,61,69.4C61,69.5,60.9,69.5,61,69.4z"/>
					<path id="eydlib7ehv188" class="st3" d="M62.8,69.4c-0.3,0-0.5-0.1-0.8-0.1c-0.3-0.1-0.5-0.1-0.7,0.1c0,0-0.1,0-0.1,0.1
						c0,0,0,0,0,0.1c0.1,0.3,0.3,0.4,0.4,0.5c0.1,0.1,0.2,0.1,0.3,0.1c0.2,0,0.3,0,0.4,0c0.1,0,0.3-0.1,0.3-0.2
						C62.8,69.8,63,69.4,62.8,69.4z"/>
					<path id="eydlib7ehv189" class="st5" d="M59.9,71.5c0-0.1-0.1-1,0.6-1.7c0.3-0.3,0.8-0.5,1.4-0.5c0.8,0,1.4,0.2,1.7,0.4
						c0.3,0.3,0.5,0.8,0.5,1.7v0.1H59.9L59.9,71.5z M63.4,69.8c-0.3-0.3-0.8-0.4-1.6-0.4c-0.5,0-0.9,0.2-1.2,0.5
						c-0.4,0.5-0.5,1.2-0.5,1.4h3.7C63.8,70.6,63.7,70.2,63.4,69.8z"/>
					<path id="eydlib7ehv190" class="st5" d="M60.1,71.1h3.8v-0.2h-3.8V71.1z"/>
					<path id="eydlib7ehv191" class="st5" d="M61.2,69.9l-0.2-0.4l0.2-0.1l0.2,0.4c0,0.1,0.1,0.1,0.2,0.1h1c0.1,0,0.2-0.1,0.2-0.2
						l0.2-0.4l0.2,0.1l-0.2,0.4c-0.1,0.2-0.2,0.3-0.3,0.3h-1C61.4,70.1,61.3,70,61.2,69.9z"/>
					<path id="eydlib7ehv192" class="st5" d="M66.6,65.1L66.6,65.1c0-0.1,0.3-2.9-0.6-4.2l0.2-0.1c0.8,1.4,0.7,3.9,0.7,4.2l0.4,0.3
						l-0.1,0.2L66.6,65.1z"/>
					<path id="eydlib7ehv193" class="st5" d="M60.4,45.7l0.1,0.2l0.8-0.3v-0.2L60.4,45.7z"/>
					<path id="eydlib7ehv194" class="st5" d="M64.4,50.3v-0.2c0.3,0,0.4,0,0.7,0v0.2C64.8,50.3,64.5,50.3,64.4,50.3z"/>
					<path id="eydlib7ehv195" class="st5" d="M68.3,49.9c1.4-0.3,2.1-0.6,2.1-0.6l0.1,0.2c0,0-0.7,0.3-2.1,0.6L68.3,49.9z"/>
					<path id="eydlib7ehv196" class="st5" d="M64.4,51.3v-0.2c0.3,0,0.5,0.1,0.8,0.1v0.2C64.9,51.4,64.6,51.4,64.4,51.3z"/>
					<path id="eydlib7ehv197" class="st5" d="M68.5,50.9c1.3-0.3,1.9-0.6,1.9-0.6l0.1,0.2c0,0-0.7,0.3-1.9,0.6L68.5,50.9z"/>
					<path id="eydlib7ehv198" class="st10" d="M60.7,57.6c0-0.3,0-0.6,0.2-0.7c0.2-0.2,0.4-0.1,0.7-0.1c0.4,0,0.9-0.1,1.4-0.1
						c1.1,0.1,2.4-0.2,4.4-0.4c1.4-0.3,1.9-0.3,2.1-0.4c0.3-0.1,0.5-0.1,0.7-0.2c0.3-0.2,0.6-0.3,0.8-0.2c0.1,0,0.1,0.1,0.2,0.2
						c0.1,0.2,0.1,0.3,0,0.9c0,0.1,0,0.2-0.1,0.3c-0.1,0.2-0.2,0.2-0.3,0.2c-0.8,0.3-1.5,0.3-1.5,0.3c-0.6,0-0.1,0.1-1.9,0.3
						c0,0-2.1,0.3-4.7,0.3c-0.5,0-0.6,0-0.8,0.1c-0.1,0-0.2,0.1-0.4,0c-0.2,0-0.3,0-0.3-0.1C60.7,58.2,60.7,57.9,60.7,57.6z"/>
					<path id="eydlib7ehv199" class="st7" d="M63,56.1c-0.2,0-0.3,0.2-0.3,0.3v1.9c0,0.1,0.1,0.2,0.1,0.3c0.1,0.1,0.2,0.1,0.3,0.1h1
						c0.2,0,0.3-0.2,0.3-0.3v-1.9c0-0.1-0.1-0.2-0.1-0.3c0-0.1-0.2-0.1-0.3-0.1L63,56.1z"/>
					<path id="eydlib7ehv1100" class="st5" d="M62.7,58.8c-0.1-0.1-0.2-0.2-0.2-0.3l-0.1-1.9c0-0.3,0.3-0.6,0.5-0.6h1
						c0.2,0,0.3,0.1,0.3,0.2c0.1,0.1,0.2,0.2,0.2,0.3l0.1,1.9c0,0.3-0.3,0.6-0.5,0.6h-1C62.8,59,62.8,59,62.7,58.8z M63,56.1
						c-0.2,0-0.3,0.2-0.3,0.3v1.9c0,0.1,0.1,0.2,0.1,0.3c0.1,0.1,0.2,0.1,0.3,0.1h1c0.2,0,0.3-0.2,0.3-0.3v-1.9
						c0-0.1-0.1-0.2-0.1-0.3c-0.1-0.1-0.2-0.1-0.3-0.1C64,56.1,63,56.1,63,56.1z"/>
					<path id="eydlib7ehv1101" class="st7" d="M69.3,55.4h-0.3c-0.1,0-0.2,0.1-0.2,0.2l0.1,2.5c0,0.1,0,0.1,0.1,0.1l0.1,0.1h0.3
						c0.1,0,0.1,0,0.1-0.1l0.1-0.1l-0.1-2.5C69.4,55.5,69.4,55.5,69.3,55.4C69.3,55.4,69.3,55.4,69.3,55.4L69.3,55.4z"/>
					<path id="eydlib7ehv1102" class="st5" d="M68.8,58.2c-0.1-0.1-0.1-0.2-0.1-0.2l-0.1-2.5c0-0.2,0.1-0.3,0.3-0.3h0.3
						c0.1,0,0.2,0,0.2,0.1c0,0.1,0.1,0.2,0.1,0.2l0.1,2.5c0,0.1,0,0.2-0.1,0.2c-0.1,0.1-0.2,0.1-0.2,0.1h-0.3
						C68.9,58.3,68.8,58.2,68.8,58.2z M69.3,55.4h-0.3c-0.1,0-0.2,0.1-0.2,0.2l0.1,2.5c0,0.1,0,0.1,0.1,0.1l0.1,0.1h0.3
						c0.1,0,0.1,0,0.1-0.1l0.1-0.1l-0.1-2.5C69.4,55.5,69.4,55.5,69.3,55.4C69.3,55.4,69.3,55.4,69.3,55.4L69.3,55.4z"/>
					<path id="eydlib7ehv1103" class="st5" d="M69.4,57.5c0.4-0.1,0.8-0.2,1.1-0.3c0.2-0.1,0.3-0.3,0.3-0.5v-0.8
						c0-0.1-0.1-0.1-0.1-0.2c-0.1-0.1-0.2-0.1-0.2,0c-0.3,0.1-0.8,0.2-1.2,0.3l-0.1-0.2c0.4-0.1,0.8-0.3,1.2-0.3
						c0.1,0,0.3,0,0.3,0.1C71,55.7,71,55.8,71,56v0.8c0,0.3-0.2,0.6-0.5,0.7c-0.3,0.1-0.7,0.2-1.1,0.3V57.5z"/>
					<path id="eydlib7ehv1104" class="st5" d="M64.4,56.6c1.6-0.1,3.1-0.3,4.3-0.6l0.1,0.2c-1.3,0.3-2.7,0.5-4.4,0.6V56.6z"/>
					<path id="eydlib7ehv1105" class="st5" d="M60.8,58.2c-0.1-0.1-0.1-0.2-0.1-0.3v-0.8c0-0.1,0.1-0.2,0.1-0.3
						c0.1-0.1,0.2-0.1,0.3-0.1c0.3,0,0.8,0,1.5,0V57c-0.7,0-1.2,0-1.5,0c-0.1,0-0.1,0-0.2,0.1c0,0.1-0.1,0.1-0.1,0.2v0.8
						C60.8,58.2,60.8,58.2,60.8,58.2c0.2,0,0.2,0.1,0.3,0.1c0.6,0,1.1,0,1.6-0.1v0.2c-0.5,0-1,0.1-1.6,0.1
						C60.9,58.3,60.8,58.3,60.8,58.2z"/>
					<path id="eydlib7ehv1106" class="st5" d="M64.4,58.1c1.7-0.1,3.1-0.3,4.3-0.4v0.2c-1.2,0.2-2.6,0.3-4.3,0.4V58.1z"/>
					<path id="eydlib7ehv1107" class="st5" d="M70.2,57.3h0.2v-1.6h-0.2V57.3z"/>
					<path id="eydlib7ehv1108" class="st5" d="M67.8,57.8H68v-1.5h-0.2V57.8z"/>
					<path id="eydlib7ehv1109" class="st5" d="M66.3,58h0.2v-1.5h-0.2V58z"/>
					<path id="eydlib7ehv1110" class="st5" d="M65,58.2h0.2v-1.4H65V58.2z"/>
					<path id="eydlib7ehv1111" class="st5" d="M61.7,58.2h0.2v-1.4h-0.2V58.2z"/>
					<path id="eydlib7ehv1112" class="st9" d="M68.8,69c0.8-0.1,0.3-0.1,1.2,0c0.2,0,0.3,0,0.4,0.1c0.4,0.1,0.9,0,1.2,0.3
						c0.1,0.1,0.2,0.3,0.3,0.3c0.2,0.2,0.3,0.4,0.3,0.7c0,0.1,0,0.2,0,0.3c0,0.2,0,0.3,0,0.4h-5.2c0,0,0,0,0-0.1v-1.1
						c0-0.3-0.1-0.4-0.1-0.7c0-0.1,0-0.1,0-0.1s0,0,0.1-0.1c0.1-0.1,0.1-0.1,0.1-0.1S68.7,69,68.8,69z"/>
					<path id="eydlib7ehv1113" class="st3" d="M68.8,68.9c0.2-0.1,0.4,0,0.6,0.1c0.6,0.1,1.2,0.1,1.7,0.3l0,0l0,0
						c-0.1,0.2-0.3,0.3-0.4,0.3c-0.1,0-0.2,0-0.3,0c-0.3,0-0.5,0-0.8-0.1c-0.1,0-0.1,0-0.2,0s-0.1-0.1-0.2-0.1
						c-0.1-0.1-0.2-0.2-0.3-0.3C68.8,69.2,68.7,69,68.8,68.9z"/>
					<path id="eydlib7ehv1114" class="st5" d="M66.9,69.2l0.2-0.3l0.2,0.1l-0.2,0.3v1.8h5.1c0-0.2,0.1-0.8-0.3-1.3
						c-0.2-0.3-0.5-0.5-0.9-0.6c-0.9-0.2-2-0.3-2-0.3l0.4-0.1c0,0,0.7,0.1,1.6,0.3c0.5,0.1,0.8,0.3,1.1,0.6c0.4,0.6,0.3,1.4,0.3,1.4
						v0.1h-5.5V69.2L66.9,69.2z"/>
					<path id="eydlib7ehv1115" class="st5" d="M67,70.7h5.2v-0.2H67V70.7z"/>
					<path id="eydlib7ehv1116" class="st5" d="M70.5,69.7l-1.2-0.2c-0.3,0-0.5-0.2-0.6-0.4l-0.2-0.3h0.2l0.1,0.3
						c0.1,0.2,0.3,0.3,0.4,0.3l1.2,0.2c0.2,0.1,0.3,0,0.4-0.2l0.3-0.3l0.2,0.1l-0.2,0.3C71,69.7,70.8,69.8,70.5,69.7
						C70.6,69.8,70.5,69.8,70.5,69.7z"/>
					<path id="eydlib7ehv1117" class="st5" d="M62.2,64.4c-0.3,0-0.4-0.1-0.7-0.2C61.8,64.2,62.1,64.2,62.2,64.4
						c0.3-0.1,0.5,0,0.8,0.1C62.7,64.5,62.5,64.5,62.2,64.4z"/>
					<path id="eydlib7ehv1118" class="st5" d="M69.2,64.5c-0.2,0-0.3,0.1-0.5,0c0.2-0.1,0.3-0.2,0.4-0.2c0.2,0,0.3-0.1,0.5,0
						C69.5,64.4,69.3,64.5,69.2,64.5z"/>
					<path id="eydlib7ehv1119" class="st5" d="M60.9,43.4l0.2,1.3l0.7,0.8l0.9,0.7l1.3,0.4l1.4,0.3h0.8l0.4-0.3l0.4-2.5
						c0,0,0.1-1.4-0.5-1.4c-0.6-0.1-3.3-0.1-4.3-1.4l-0.3,0l-0.3,0.3l-0.4,1.3L60.9,43.4z M61.5,42.7c0.2-0.6,0.5-0.9,0.8-0.9
						c0.3,0.1,0.3,0.6,0.2,1.2c-0.2,0.6-0.5,0.9-0.8,0.9C61.4,43.8,61.3,43.3,61.5,42.7z"/>
				</g>
			</g>
		</g>
		<g id="eydlib7ehv144_1_">
			<g id="eydlib7ehv145_1_">
				<path id="eydlib7ehv146_1_" class="st3" d="M47.6,50.6c0.1-0.1,0.3-0.1,0.3,0l0.1,0.1c0.1,0,0.1,0,0.1,0
					c0.2-0.1,0.3-0.2,0.6-0.2c0.2-0.1,0.3-0.1,0.4-0.1h0.1c0.1,0,0.1,0.1,0.1,0.1c0.1,0.3,0.3,0.7,0.3,1c0.1,0.2,0.1,0.3,0.1,0.4
					c0.1,0.2,0,0.4,0.1,0.6c0.1,0.2,0.2,0.3,0.1,0.6c0,0.1-0.1,0.2-0.2,0.3c-0.1,0.1-0.2,0.1-0.3,0.1c-0.2,0.1-0.3,0.1-0.6,0.1
					c-0.1,0-0.3,0.1-0.3,0c-0.2,0-0.3-0.1-0.4-0.1c-0.1,0-0.2,0.1-0.2,0.1c-0.2,0.1-0.4,0.1-0.6,0.2c-0.1,0-0.1,0-0.2,0
					c-0.1-0.1-0.2-0.1-0.2-0.1c-0.3-0.3-0.5-0.8-0.5-0.8c-0.2-0.3-0.2-0.7-0.3-0.8c-0.1-0.3-0.1-0.4,0-0.6s0.2-0.2,0.7-0.4
					C47,50.9,47.3,50.7,47.6,50.6z"/>
				<g id="eydlib7ehv147_1_">
					<path id="eydlib7ehv148_1_" class="st4" d="M46.1,51.2c-0.7-0.3-1.4,0.9-2,0.5c-0.2-0.1-0.2-0.3-0.3-0.3
						c-0.8-1.6-1.9-3.1-2.7-4.7c-0.1-0.1-0.4-0.1-0.6-0.3c-0.1-0.1,0-0.3-0.2-0.4c-0.3-0.2-0.4-0.2-0.6-0.3c-0.4,0-0.8,0-0.9-0.3
						c-0.1-0.2,0-0.4,0-0.6c0.4-1.6-0.4-3.2-0.5-3.3c-0.2-0.3-0.3-0.4-0.4-0.6c0,0-0.6-0.8-1.3-1.3c-1.2-0.9-4.1-1.4-5.4,0.1
						c-0.6,0.6-0.8,1.4-0.8,1.8c-0.3,1.2-0.2,2.5-0.2,2.5c0.1,0.7,0.2,1.3-0.2,1.8c-0.1,0.2-0.3,0.3-0.3,0.3
						c-1.4,1.1-1.9,1.4-2.4,1.9c-0.6,0.5-1,0.8-1.2,1.5c-0.1,0.2-0.3,0.7-0.2,1.4c0.1,0.2,0.2,0.6,0.8,1.5c0.3,0.3,0.8,0.9,1.4,1.4
						c-0.1-0.9,0.5-1.5,0.8-1.7c0.2-0.1,0.3-0.1,0.3-0.3c0-0.2-0.2-0.8-0.3-0.9c-0.2-0.4-0.3-0.3-0.7-0.8c0.3-0.1,0.4-0.2,0.7-0.3
						c0,0.8,0.4,1.7,0.4,3c0.1,2.2-0.2,2.6-0.2,4.4c0.1,1.7,0.1,3,0.2,4c0.1,1.9-0.1-0.2,0.1,1.8c0.1,0.6,0.4,1.4,0.6,1.9
						c0.2,0.9-0.1,1.8,0.5,3.7c0,0.1,0.1,0.2,0.2,0.3s0.3,0.2,0.3,0.2c0.6,0,1.4,0.2,1.7-0.1c0.1-0.1,0.1-0.2,0.2-0.6
						c0.1-0.6,0.1-0.8,0.1-1.2c0-0.6,0.1-1.2,0.1-1.9c0.1-1.4,0.3-4.4,0.8-4.4c0.1,0,0.1,0,0.2,0.2c0.3,0.6,0.8,1.3,1.1,2.1
						c0.4,1,0.7,1.9,0.8,2.1c0.5,1.9,0.8,3,0.7,3.7c0,0.2-0.1,0.6,0.2,0.7c0.2,0.1,0.3-0.2,0.7-0.2c0.2-0.1,0.4,0,0.8,0.1
						c0.3,0.1,0.6,0.1,0.9,0.2c0.1-0.1,0.1-0.3,0.2-0.4c0.3-1.2,0.1-2-0.1-3c-0.2-1.4,0.2-1.1,0.1-3c-0.1-0.8-0.2-0.9-0.4-3.1
						C39,59.3,39,59.1,39,58.7c0-0.7,0.1-1,0.1-1.9c0-0.4,0-0.8,0-1c0.1-1.1,0.2-2.2,0.3-3.5c0.1-0.5,0.2-1,0.3-1.5
						c0.2,0.2,0.4,0.7,0.7,1c0.3,0.4,0.6,0.8,0.8,1.2c0.6,1.1,0.6,1.4,0.9,1.6c0.2,0.2,0.5,0.3,0.8,0.4c0.2,0.1,0.3,0.2,0.5,0.2
						c0.6,0.2,0.9-0.3,1.9-0.8c1-0.5,1.6-0.4,1.6-0.8c0.1-0.3-0.3-0.3-0.6-0.8C46,52.3,46,51.7,46.1,51.2z"/>
					<path id="eydlib7ehv149_1_" class="st5" d="M33.2,52.6c-1,0-1.9-0.8-1.9-1.9s0.8-1.9,1.9-1.9c1,0,1.9,0.8,1.9,1.9
						C35.1,51.7,34.3,52.6,33.2,52.6z M33.2,48.9c-0.9,0-1.7,0.8-1.7,1.8s0.8,1.8,1.7,1.8c0.9,0,1.7-0.8,1.7-1.8
						C35,49.6,34.2,48.9,33.2,48.9z"/>
					<path id="eydlib7ehv150_1_" class="st6" d="M40.7,52.4l-0.4,3c-0.1,0.3-0.3,0.5-0.5,0.6l-0.7,0.3l0.3-3l0.3-2.7L40.7,52.4z"/>
					<path id="eydlib7ehv151_1_" class="st3" d="M29.3,52C29.4,52,29.4,52,29.3,52c0.3,0.1,0.2,0.3,0.2,0.4c0,0-0.1,0.4-0.1,1.4
						c0,0.6,0.1,0.8,0,0.8s-0.4,0-1.1-0.8c-0.1-0.2-0.1-0.3-0.1-0.7c0.1-0.4,0.3-0.7,0.5-0.9C28.8,52.2,29,52,29.3,52z"/>
					<path id="eydlib7ehv152_1_" class="st5" d="M38.9,56.5l-0.1-0.2l0.8-0.3c0.3-0.1,0.4-0.3,0.5-0.6l0.4-3h0.2l-0.4,3
						c-0.1,0.3-0.3,0.7-0.6,0.8L38.9,56.5z"/>
					<path id="eydlib7ehv153_1_" class="st7" d="M42.1,54.5c-0.1,0-0.1,0.1-0.2,0.1l-0.1,0.2c-0.1,0.1,0,0.2,0.1,0.2l1.1,0.6
						c0.1,0,0.1,0.1,0.1,0c0.1,0,0.1-0.1,0.1-0.1l0.1-0.3c0.1-0.1,0-0.2-0.1-0.2l-0.3-0.3l-0.1-0.3l-0.3,0.2L42.1,54.5
						C42.1,54.6,42.1,54.5,42.1,54.5z"/>
					<path id="eydlib7ehv154_1_" class="st7" d="M25.6,49.5C25.5,49.5,25.5,49.6,25.6,49.5l-0.2,1v0.1l0.1,0.1h0.2
						c0.1,0,0.1-0.1,0.1-0.1l0.1-0.3l0.3-0.2L25.8,50v-0.3c0-0.1-0.1-0.1-0.1-0.1H25.6L25.6,49.5z"/>
					<path id="eydlib7ehv155_1_" class="st8" d="M36.2,49.9h-0.4c-0.1,0-0.2,0.1-0.2,0.2v1.6c0,0.1,0.1,0.2,0.2,0.2h0.4
						c0.1,0,0.1,0,0.1-0.1c0.1-0.1,0.1-0.1,0.1-0.1V50C36.4,50,36.4,50,36.2,49.9C36.4,49.9,36.3,49.9,36.2,49.9z"/>
					<path id="eydlib7ehv156_1_" class="st8" d="M36.7,50v1.6c0,0.1,0,0.1,0.1,0.2h0.1h0.3c0.1,0,0.1-0.1,0.1-0.2V50
						c0-0.1,0-0.1-0.1-0.2h-0.1h-0.3C36.7,49.8,36.7,49.9,36.7,50z"/>
					<path id="eydlib7ehv157_1_" class="st5" d="M43.1,55.9c-0.1,0-0.1,0-0.2-0.1l-1.1-0.6c-0.2-0.1-0.2-0.3-0.2-0.4l0.1-0.2
						c0.1-0.2,0.3-0.3,0.4-0.2l0.3,0.2l0.4-0.3l0.1,0.5l0.3,0.2c0.2,0.1,0.2,0.3,0.1,0.4l-0.2,0.3C43.2,55.8,43.2,55.8,43.1,55.9
						L43.1,55.9z M42.1,54.5c-0.1,0-0.1,0.1-0.2,0.1l-0.1,0.2c-0.1,0.1,0,0.2,0.1,0.2l1.1,0.6c0.1,0,0.1,0.1,0.1,0
						c0.1,0,0.1-0.1,0.1-0.1l0.1-0.3c0.1-0.1,0-0.2-0.1-0.2l-0.3-0.3l-0.1-0.3l-0.3,0.2L42.1,54.5C42.1,54.6,42.1,54.5,42.1,54.5z"
						/>
					<path id="eydlib7ehv158_1_" class="st5" d="M25.8,50.9h-0.3c-0.1,0-0.2-0.1-0.2-0.1c-0.1-0.1-0.1-0.2-0.1-0.2l0.1-0.9
						c0-0.2,0.2-0.3,0.3-0.3h0.2c0.2,0,0.3,0.2,0.3,0.3V50l0.3,0.3L26,50.5l-0.1,0.3C26,50.8,25.8,50.9,25.8,50.9z M25.6,49.5
						C25.5,49.5,25.5,49.6,25.6,49.5l-0.2,1v0.1l0.1,0.1h0.2c0.1,0,0.1-0.1,0.1-0.1l0.1-0.3l0.3-0.2L25.8,50v-0.3
						c0-0.1-0.1-0.1-0.1-0.1H25.6L25.6,49.5z"/>
					<path id="eydlib7ehv159_1_" class="st5" d="M36.2,51.9h-0.4c-0.2,0-0.3-0.2-0.3-0.3V50c0-0.2,0.2-0.3,0.3-0.3h0.4
						c0.1,0,0.2,0.1,0.3,0.1c0.1,0.1,0.1,0.2,0.1,0.3v1.6c0,0.1-0.1,0.2-0.1,0.3C36.5,51.8,36.4,51.9,36.2,51.9z M36.2,49.9h-0.4
						c-0.1,0-0.2,0.1-0.2,0.2v1.6c0,0.1,0.1,0.2,0.2,0.2h0.4c0.1,0,0.1,0,0.1-0.1c0.1-0.1,0.1-0.1,0.1-0.1V50
						C36.4,50,36.4,50,36.2,49.9C36.4,49.9,36.3,49.9,36.2,49.9z"/>
					<path id="eydlib7ehv160_1_" class="st5" d="M36.7,51.8c-0.1,0-0.1,0-0.2-0.1c-0.1,0-0.1-0.1-0.1-0.2V50c0-0.2,0.1-0.3,0.3-0.3
						h0.3c0.1,0,0.2,0,0.2,0.1c0.1,0.1,0.1,0.2,0.1,0.3v1.6c0,0.2-0.1,0.3-0.3,0.3L36.7,51.8z M36.7,50v1.6c0,0.1,0,0.1,0.1,0.2h0.1
						h0.3c0.1,0,0.1-0.1,0.1-0.2V50c0-0.1,0-0.1-0.1-0.2h-0.1h-0.3C36.7,49.8,36.7,49.9,36.7,50z"/>
					<path id="eydlib7ehv161_1_" class="st5" d="M30.1,64.6c-0.7-0.8-0.7-2.1-0.7-2.2l-0.3-5.2h0.2l0.3,5.2c0,0,0,1.3,0.7,2.1
						L30.1,64.6z"/>
					<path id="eydlib7ehv162_1_" class="st5" d="M32.9,69.1L30.7,69l-0.2-0.3L30,64.3h0.2l0.6,4.2l0.2,0.2l1.9,0.1l0.1-0.2l0.2-3.6
						h0.2l-0.2,3.7L32.9,69.1z"/>
					<path id="eydlib7ehv163_1_" class="st5" d="M36.2,64.7l-0.4-0.1v-0.1C35,62,33.4,60,33.4,59.9l0.2-0.1c0,0,1.6,2.1,2.4,4.6
						l0.3,0.1L36.2,64.7z"/>
					<path id="eydlib7ehv164_1_" class="st5" d="M36.7,69.7c-0.2-2.9-0.8-5.1-0.8-5.1l0.2-0.1c0,0,0.7,2.2,0.8,5.1L36.7,69.7z"/>
					<path id="eydlib7ehv165_1_" class="st5" d="M39.3,69.6l-0.2-0.1l0.3-0.3c0-0.3,0.1-1.9-0.3-5.1h0.2c0.3,3.4,0.3,5.2,0.3,5.2
						l0,0L39.3,69.6z"/>
					<path id="eydlib7ehv166_1_" class="st5" d="M39.2,64.3L39,64.2l0.3-0.3c-0.2-3.2-0.6-5.6-0.6-5.6h0.2c0,0,0.4,2.4,0.6,5.7V64
						L39.2,64.3z"/>
					<path id="eydlib7ehv167_1_" class="st5" d="M29.4,51.9l-0.1,3.6h0.2l0.1-3.6H29.4L29.4,51.9z"/>
					<path id="eydlib7ehv168_1_" class="st5" d="M39.1,54.1l-0.3,2.7H39l0.3-2.7H39.1z"/>
					<path id="eydlib7ehv169_1_" class="st5" d="M41.9,54.6l-2.2-3.8l0,0l0,0l-0.4,2.5h-0.2l0.3-2.5c0-0.1,0.1-0.2,0.2-0.2
						s0.2,0,0.2,0.1L41.9,54.6L41.9,54.6z"/>
					<path id="eydlib7ehv170_1_" class="st5" d="M33.9,47.8c-3,0-3.9-2.2-3.9-2.2c0-0.1-1.1-6.1,2.4-6.9c3.5-0.8,5.2,1.8,5.2,1.8
						l-0.2,0.1c0,0-1.6-2.5-5.1-1.8c-3.4,0.8-2.3,6.7-2.3,6.7c0.1,0.1,1.4,3.2,6.3,1.6c0,0,1.5-0.6,2.1-1.7v-0.7h0.2v0.8l0,0
						c-0.7,1.1-2.1,1.7-2.2,1.8C35.6,47.6,34.7,47.8,33.9,47.8z"/>
					<path id="eydlib7ehv171_1_" class="st5" d="M34.2,46.8c-0.8,0-0.9-0.5-1.2-1.9c0-0.2-0.1-0.3-0.1-0.4c-0.2-0.9-0.1-1.5,0.2-1.9
						c0.2-0.3,0.4-0.3,0.4-0.3s0,0,0.1,0c3.2,0,4.2-1.4,4.2-1.4V41H38c0.3,0,0.6,0.2,0.7,0.4c0.9,2.3,0.3,3,0.3,3.1
						c-1,1.7-2.9,1.9-4.1,2.2h-0.1C34.5,46.8,34.4,46.8,34.2,46.8z M33.5,42.5c0,0-0.2,0-0.3,0.2c-0.2,0.2-0.3,0.7-0.2,1.7
						c0.1,0.2,0.1,0.3,0.1,0.4c0.3,1.6,0.3,1.9,1.5,1.7h0.1c1.3-0.2,3-0.4,4.1-2.1c0,0,0.6-0.8-0.3-3c-0.1-0.2-0.3-0.3-0.5-0.3h-0.1
						C37.8,41.4,36.7,42.5,33.5,42.5L33.5,42.5z"/>
					<path id="eydlib7ehv172_1_" class="st5" d="M33.8,47.3c-0.9,0-1.3-0.9-1.5-3.2c-0.1-1.1-0.1-1.6,0.2-1.9
						c0.3-0.3,0.7-0.3,1.4-0.4c0.3,0,0.4-0.1,0.8-0.1c2-0.3,3-1.2,3-1.2l0.1-0.1h0.1c0.2,0.1,0.3,0.1,0.3,0.2
						c0.1,0.2-0.1,0.4-0.1,0.4L37.8,41c0-0.1,0.1-0.2,0.1-0.3c0-0.1-0.1-0.1-0.1-0.1c-0.2,0.2-1.1,1-3,1.3C34.5,42,34.2,42,33.9,42
						c-0.7,0.1-1.2,0.1-1.4,0.3c-0.2,0.3-0.3,0.8-0.1,1.8C32.8,46.6,33.1,47.3,33.8,47.3L33.8,47.3c2.2-0.1,3.8-0.8,4.9-2l0.1,0.1
						C37.7,46.7,36,47.3,33.8,47.3C33.9,47.3,33.8,47.3,33.8,47.3z"/>
					<path id="eydlib7ehv173_1_" class="st6" d="M39.7,45.8c-0.1,0-0.1,0-0.2,0.1c-0.6,0.6-2.3,2.2-2.3,4.6c0,2.3,1.3,3.3,1.6,3.5
						c0.1,0.1,0.2,0.1,0.3,0c0.1-0.1,0.1-0.1,0.1-0.2v-0.3c0-0.1,0-0.1-0.2-0.3c-0.7-0.4-0.9-2.3-1-2.4c0-3,1.6-4.1,2.2-4.6
						c0.1-0.1,0.1-0.1,0.1-0.2s-0.1-0.2-0.1-0.2L39.7,45.8C39.8,45.8,39.8,45.8,39.7,45.8z"/>
					<path id="eydlib7ehv174_1_" class="st5" d="M39.1,54.3c-0.1,0-0.2,0-0.3-0.1c-0.4-0.3-1.7-1.4-1.7-3.7c0-2.4,1.7-4.1,2.3-4.7
						c0.2-0.2,0.3-0.2,0.4-0.1l0.5,0.2c0.2,0.1,0.2,0.2,0.2,0.3s-0.1,0.3-0.2,0.3c-0.6,0.4-2.1,1.6-2.1,4.4c0,0,0.3,1.9,0.9,2.3
						c0.2,0.1,0.3,0.3,0.3,0.3v0.3c0,0.2-0.1,0.3-0.2,0.3C39.2,54.3,39.2,54.3,39.1,54.3z M39.7,45.8c-0.1,0-0.1,0-0.2,0.1
						c-0.6,0.6-2.3,2.2-2.3,4.6c0,2.3,1.3,3.3,1.6,3.5c0.1,0.1,0.2,0.1,0.3,0c0.1-0.1,0.1-0.1,0.1-0.2v-0.3c0-0.1,0-0.1-0.2-0.3
						c-0.7-0.4-0.9-2.3-1-2.4c0-3,1.6-4.1,2.2-4.6c0.1-0.1,0.1-0.1,0.1-0.2s-0.1-0.2-0.1-0.2L39.7,45.8
						C39.8,45.8,39.8,45.8,39.7,45.8z"/>
					<path id="eydlib7ehv175_1_" class="st5" d="M44,52.1l-3.1-5.3l-0.4-0.3l0.1-0.2l0.5,0.3l3.1,5.3L44,52.1z"/>
					<path id="eydlib7ehv176_1_" class="st5" d="M48,53.3l-1,0.3l0.1,0.2l1-0.3L48,53.3z"/>
					<path id="eydlib7ehv177_1_" class="st5" d="M47.7,52.2C47.6,52.2,47.6,52.2,47.7,52.2c-0.2-0.1-0.3-0.1-0.3-0.2l-0.2-0.3
						l0.2-0.1l0.2,0.3c0,0.1,0.1,0.1,0.2,0.1c0.1,0,0.1,0,0.2,0l0.3-0.2c0.1-0.1,0.1-0.1,0.1-0.2s0-0.1,0-0.2l-0.4-0.7
						c-0.1-0.1-0.2-0.2-0.3-0.1l-1.5,0.7L46,51.2l1.5-0.7c0.2-0.1,0.3,0,0.5,0.2l0.4,0.7c0.1,0.1,0.1,0.2,0.1,0.3
						c0,0.1-0.1,0.2-0.2,0.3l-0.3,0.2C47.8,52.2,47.7,52.2,47.7,52.2z"/>
					<path id="eydlib7ehv178_1_" class="st5" d="M48.3,53.6c-0.2,0-0.3-0.2-0.4-0.3l-0.2-1.2l0.2-0.1l0.2,1.2c0,0.1,0.2,0.2,0.3,0.2
						l1.1-0.2c0.1,0,0.2-0.1,0.2-0.1c0.1-0.1,0.1-0.1,0.1-0.2l-0.5-2.4c0-0.1-0.1-0.2-0.1-0.2c-0.1-0.1-0.2-0.1-0.2,0L48,50.8
						l-0.1-0.2l0.9-0.4c0.1-0.1,0.3-0.1,0.3,0c0.1,0.1,0.2,0.2,0.2,0.3l0.5,2.4c0,0.1,0,0.3-0.1,0.3s-0.2,0.2-0.3,0.2L48.3,53.6
						L48.3,53.6z"/>
					<path id="eydlib7ehv179_1_" class="st5" d="M43.4,55.4l-0.1-0.2l3.5-1.5c0.1,0,0.1-0.1,0.1-0.1c0-0.1,0-0.1-0.1-0.1
						c-0.8-0.7-0.8-1.7-0.8-2.2c0-0.1,0-0.1-0.1-0.1c-0.1,0-0.1,0-0.1,0l-2.1,1l-0.1-0.2l2.1-1c0.1-0.1,0.2-0.1,0.3,0
						c0.1,0.1,0.1,0.2,0.1,0.3c-0.1,0.5,0,1.4,0.8,2.1c0.1,0.1,0.1,0.2,0.1,0.3c0,0.1-0.1,0.2-0.2,0.2L43.4,55.4z"/>
					<path id="eydlib7ehv180_1_" class="st6" d="M30.1,45.7L30,45.7c-0.2,0.3-1.4,2.4-0.7,6.1l0.2,0.1c-0.1-0.7-0.3-4.1,1.1-5.5
						L30.1,45.7z"/>
					<path id="eydlib7ehv181_1_" class="st5" d="M29.6,52l-0.5-0.2v-0.1c-0.8-4.1,0.7-6.3,0.7-6.3l0,0l0.3-0.1l0.1,0.2L30,45.6
						c-0.2,0.3-1.4,2.4-0.7,6.1l0.2,0.1c-0.1-0.7-0.3-4.1,1.1-5.5l0.1,0.1c-1.4,1.5-1.1,5.5-1.1,5.5L29.6,52L29.6,52z"/>
					<path id="eydlib7ehv182_1_" class="st5" d="M25.8,49.5l-0.2-0.1c1.4-2.1,3.8-3.3,3.8-3.3l0.1,0.2
						C29.6,46.3,27.3,47.4,25.8,49.5z"/>
					<path id="eydlib7ehv183_1_" class="st5" d="M28.4,54l-0.2-0.2c-1.8-1.4-2.5-3-2.5-3.1l0.2-0.1c0,0,0.8,1.5,2.4,2.9
						c-0.1-0.4,0.1-1.4,1.3-1.8l0.1,0.2c-1.4,0.5-1.1,1.8-1.1,1.9L28.4,54z"/>
					<path id="eydlib7ehv184_1_" class="st5" d="M28,49.7L28,49.7l1,1.3l0.1-0.1L28,49.7z"/>
					<path id="eydlib7ehv185_1_" class="st5" d="M29,49.8l-0.7,0.3l0.1,0.2L29,50L29,49.8z"/>
					<path id="eydlib7ehv186_1_" class="st5" d="M28.4,53.8l-0.1,0.2l1.1,0.8l0.1-0.2L28.4,53.8z"/>
					<path id="eydlib7ehv187_1_" class="st9" d="M38.9,69.5c0.2,0.1,0.3,0.2,0.4,0.3c0.1,0.1,0.2,0.2,0.2,0.3
						c0.3,0.4,0.3,0.8,0.3,1.4l0,0c0,0,0,0-0.1,0c-0.4,0-0.8,0-1.3,0H36c-0.1-0.1-0.1-0.3-0.1-0.4c0-0.2,0.1-0.3,0.1-0.4
						c0.1-0.2,0.1-0.3,0.2-0.5c0.1-0.1,0.2-0.2,0.2-0.3c0.1-0.1,0.2-0.2,0.3-0.2c0.1-0.1,0.2-0.1,0.3-0.2l0.1-0.1
						c0.1,0,0.1-0.1,0.1-0.1C37.8,69.2,38.4,69.2,38.9,69.5C39,69.4,39,69.4,38.9,69.5C39.1,69.5,39,69.5,38.9,69.5z"/>
					<path id="eydlib7ehv188_1_" class="st3" d="M37.2,69.9c0.1,0.1,0.3,0.1,0.3,0.2c0.2,0,0.3,0,0.4,0c0.1,0,0.2,0,0.3-0.1
						c0.3-0.1,0.4-0.3,0.4-0.5v-0.1c0,0,0,0-0.1-0.1c-0.2-0.2-0.4-0.2-0.7-0.1c-0.3,0.1-0.4,0.2-0.7,0.2
						C37,69.4,37.2,69.8,37.2,69.9z"/>
					<path id="eydlib7ehv189_1_" class="st5" d="M40.1,71.5h-4.1v-0.1c0-0.8,0.2-1.4,0.5-1.7c0.3-0.3,0.8-0.4,1.7-0.4
						c0.6,0,1,0.2,1.4,0.5C40.2,70.5,40.1,71.4,40.1,71.5L40.1,71.5z M36.1,71.3h3.7c0-0.3-0.1-0.9-0.5-1.4
						c-0.3-0.3-0.7-0.5-1.2-0.5c-0.8,0-1.3,0.1-1.6,0.4C36.3,70.2,36.1,70.6,36.1,71.3z"/>
					<path id="eydlib7ehv190_1_" class="st5" d="M39.9,70.9h-3.8v0.2h3.8V70.9z"/>
					<path id="eydlib7ehv191_1_" class="st5" d="M38.4,70.1h-1c-0.2,0-0.3-0.1-0.3-0.3l-0.2-0.4l0.2-0.1l0.2,0.4
						c0,0.1,0.1,0.2,0.2,0.2h1c0.1,0,0.2-0.1,0.2-0.1l0.2-0.4l0.2,0.1l-0.2,0.4C38.7,70,38.6,70.1,38.4,70.1z"/>
					<path id="eydlib7ehv192_1_" class="st5" d="M32.9,65.4l-0.1-0.2l0.4-0.3c-0.1-0.4-0.2-2.9,0.7-4.2l0.2,0.1
						c-0.8,1.4-0.7,4.1-0.6,4.2v0.1L32.9,65.4z"/>
					<path id="eydlib7ehv193_1_" class="st5" d="M38.8,45.4v0.2l0.8,0.3l0.1-0.2L38.8,45.4z"/>
					<path id="eydlib7ehv194_1_" class="st5" d="M35,50.3v-0.2c0.3,0,0.4,0,0.7,0v0.2C35.4,50.3,35.1,50.3,35,50.3z"/>
					<path id="eydlib7ehv195_1_" class="st5" d="M31.7,50c-1.4-0.3-2.1-0.6-2.1-0.6l0.1-0.2c0,0,0.8,0.3,2.1,0.6L31.7,50z"/>
					<path id="eydlib7ehv196_1_" class="st5" d="M34.9,51.4v-0.2c0.3,0,0.5,0,0.8-0.1v0.2C35.4,51.4,35.1,51.4,34.9,51.4z"/>
					<path id="eydlib7ehv197_1_" class="st5" d="M31.5,51.1c-1.3-0.3-1.9-0.6-1.9-0.6l0.1-0.2c0,0,0.7,0.3,1.9,0.6L31.5,51.1z"/>
					<path id="eydlib7ehv198_1_" class="st10" d="M39.1,58.2c-0.1,0.1-0.2,0.1-0.3,0.1c-0.3,0-0.3,0-0.4,0c-0.3-0.1-0.3,0-0.8-0.1
						c-2.6-0.1-4.7-0.3-4.7-0.3c-1.9-0.3-1.4-0.3-1.9-0.3c0,0-0.7,0-1.5-0.3c-0.1,0-0.2-0.1-0.3-0.2C29,57,29,56.9,29,56.7
						c-0.1-0.8-0.1-0.8,0-0.9c0.1-0.1,0.1-0.2,0.2-0.2c0.2-0.1,0.4,0,0.8,0.2c0.3,0.1,0.5,0.2,0.7,0.2c0.2,0.1,0.7,0.2,2.1,0.4
						c1.9,0.3,3.3,0.5,4.4,0.4c0.4,0,0.9,0.1,1.4,0.1c0.3,0,0.5-0.1,0.7,0.1s0.2,0.3,0.2,0.7C39.2,57.9,39.2,58.2,39.1,58.2z"/>
					<path id="eydlib7ehv199_1_" class="st7" d="M36,56.1c-0.1,0-0.2,0.1-0.3,0.1c-0.1,0.1-0.1,0.2-0.1,0.3l-0.1,1.9
						c0,0.2,0.2,0.3,0.3,0.3h1c0.1,0,0.2-0.1,0.3-0.1c0.1-0.1,0.1-0.2,0.1-0.3l0.1-1.9c0-0.2-0.2-0.3-0.3-0.3L36,56.1z"/>
					<path id="eydlib7ehv1100_1_" class="st5" d="M37,59h-1c-0.3,0-0.5-0.3-0.5-0.6l0.1-1.9c0-0.2,0.1-0.3,0.2-0.3
						C35.8,56,36,56,36.1,56h1c0.3,0,0.5,0.3,0.5,0.6l-0.1,1.9c0,0.2-0.1,0.3-0.2,0.3C37.2,59,37.1,59,37,59z M36,56.1
						c-0.1,0-0.2,0.1-0.3,0.1c-0.1,0.1-0.1,0.2-0.1,0.3l-0.1,1.9c0,0.2,0.2,0.3,0.3,0.3h1c0.1,0,0.2-0.1,0.3-0.1
						c0.2,0,0.2-0.2,0.2-0.3l0.1-1.9c0-0.2-0.2-0.3-0.3-0.3H36z"/>
					<path id="eydlib7ehv1101_1_" class="st7" d="M30.7,55.4C30.7,55.4,30.7,55.4,30.7,55.4l-0.2,0.2l-0.1,2.5c0,0.1,0,0.1,0.1,0.1
						s0.1,0.1,0.1,0.1H31c0.1,0,0.1,0,0.1-0.1l0.1-0.1l0.1-2.5c0-0.1-0.1-0.2-0.2-0.2L30.7,55.4L30.7,55.4z"/>
					<path id="eydlib7ehv1102_1_" class="st5" d="M31,58.3h-0.3c-0.1,0-0.2-0.1-0.2-0.1l-0.1-0.2l0.1-2.5c0-0.1,0.1-0.2,0.1-0.2
						c0.1-0.1,0.2-0.1,0.2-0.1h0.3c0.2,0,0.3,0.2,0.3,0.3l-0.1,2.5c0,0.1-0.1,0.2-0.1,0.2C31.2,58.2,31.1,58.3,31,58.3z M30.7,55.4
						C30.7,55.4,30.7,55.4,30.7,55.4l-0.2,0.2l-0.1,2.5c0,0.1,0,0.1,0.1,0.1s0.1,0.1,0.1,0.1H31c0.1,0,0.1,0,0.1-0.1l0.1-0.1
						l0.1-2.5c0-0.1-0.1-0.2-0.2-0.2L30.7,55.4L30.7,55.4z"/>
					<path id="eydlib7ehv1103_1_" class="st5" d="M30.5,57.6c-0.4-0.1-0.8-0.2-1.1-0.3c-0.3-0.1-0.5-0.3-0.5-0.7v-0.8
						c0-0.1,0.1-0.3,0.2-0.3c0.1-0.1,0.3-0.1,0.3-0.1c0.3,0.2,0.8,0.3,1.2,0.3V56c-0.4-0.1-0.8-0.3-1.2-0.4c-0.1,0-0.2,0-0.2,0
						c-0.1,0.1-0.1,0.1-0.1,0.2v0.8c0,0.3,0.2,0.4,0.3,0.5c0.3,0.1,0.7,0.2,1.1,0.3L30.5,57.6z"/>
					<path id="eydlib7ehv1104_1_" class="st5" d="M35.6,56.8c-1.6-0.1-3.1-0.3-4.4-0.6l0.1-0.2c1.2,0.3,2.7,0.4,4.3,0.6V56.8z"/>
					<path id="eydlib7ehv1105_1_" class="st5" d="M38.9,58.3c-0.6,0-1.1,0-1.6-0.1v-0.2c0.5,0,1,0.1,1.6,0.1c0.1,0,0.1,0,0.2-0.1
						c0.1-0.1,0.1-0.1,0.1-0.2v-0.8c0-0.1,0-0.1-0.1-0.2c-0.1-0.1-0.1-0.1-0.2-0.1c-0.3,0-0.8,0-1.5,0v-0.1c0.7,0,1.2,0,1.5,0
						c0.1,0,0.2,0.1,0.3,0.1c0.1,0.1,0.1,0.2,0.1,0.3v0.8c0,0.1-0.1,0.2-0.1,0.3C39.2,58.3,39.1,58.3,38.9,58.3z"/>
					<path id="eydlib7ehv1106_1_" class="st5" d="M35.5,58.2c-1.7-0.1-3.1-0.3-4.3-0.4v-0.2c1.2,0.2,2.6,0.3,4.3,0.4V58.2z"/>
					<path id="eydlib7ehv1107_1_" class="st5" d="M29.8,55.8h-0.2v1.6h0.2V55.8z"/>
					<path id="eydlib7ehv1108_1_" class="st5" d="M32.2,56.3H32v1.5h0.2V56.3z"/>
					<path id="eydlib7ehv1109_1_" class="st5" d="M33.6,56.5h-0.2V58h0.2V56.5z"/>
					<path id="eydlib7ehv1110_1_" class="st5" d="M35,56.6h-0.2v1.4H35V56.6z"/>
					<path id="eydlib7ehv1111_1_" class="st5" d="M38.3,56.8h-0.2v1.4h0.2V56.8z"/>
					<path id="eydlib7ehv1112_1_" class="st9" d="M32.9,69.1C32.9,69.1,32.9,69.1,32.9,69.1l0.2,0.2v0.1c0,0.3-0.1,0.4-0.1,0.7v1.1
						c0,0,0,0,0,0.1h-5.2c0-0.2,0-0.3,0-0.4c0-0.1,0-0.2,0-0.3c0.1-0.3,0.2-0.4,0.3-0.7c0.1-0.1,0.2-0.3,0.3-0.3
						c0.3-0.3,0.8-0.3,1.2-0.3c0.2,0,0.3-0.1,0.4-0.1c0.8-0.1,0.3-0.1,1.2,0C31.3,69,32.9,69.1,32.9,69.1z"/>
					<path id="eydlib7ehv1113_1_" class="st3" d="M31,69.3c-0.1,0.1-0.2,0.2-0.3,0.3c-0.1,0.1-0.1,0.1-0.2,0.1s-0.1,0-0.2,0
						c-0.3,0-0.5,0.1-0.8,0.1c-0.1,0-0.2,0-0.3,0c-0.2-0.1-0.4-0.2-0.4-0.3l0,0l0,0c0.6-0.3,1.2-0.3,1.7-0.3c0.2,0,0.4-0.1,0.6-0.1
						C31.3,69,31.1,69.2,31,69.3z"/>
					<path id="eydlib7ehv1114_1_" class="st5" d="M33.1,71.2h-5.3v-0.1c0-0.1-0.2-0.8,0.3-1.4c0.3-0.3,0.6-0.6,1.1-0.6
						c0.9-0.2,1.6-0.3,1.6-0.3l0.4,0.1c0,0-1.1,0.2-2,0.3c-0.4,0.1-0.8,0.3-0.9,0.6C28,70.3,28,71,28,71.2L33.1,71.2v-1.9l-0.2-0.3
						l0.2-0.1l0.2,0.3L33.1,71.2L33.1,71.2z"/>
					<path id="eydlib7ehv1115_1_" class="st5" d="M33,70.5h-5.2v0.2H33V70.5z"/>
					<path id="eydlib7ehv1116_1_" class="st5" d="M29.4,69.8c-0.2,0-0.3-0.1-0.5-0.3l-0.3-0.3l0.2-0.1l0.3,0.3
						c0.1,0.2,0.3,0.2,0.4,0.2l1.2-0.2c0.2,0,0.3-0.2,0.4-0.3l0.1-0.3h0.2l-0.1,0.3c-0.1,0.3-0.3,0.4-0.6,0.4L29.4,69.8
						C29.4,69.8,29.4,69.8,29.4,69.8z"/>
					<path id="eydlib7ehv1117_1_" class="st5" d="M37.1,64.5c0.3-0.1,0.4-0.2,0.7-0.2c0.3-0.1,0.4-0.1,0.8-0.1
						c-0.3,0.1-0.4,0.2-0.7,0.2C37.5,64.5,37.3,64.5,37.1,64.5z"/>
					<path id="eydlib7ehv1118_1_" class="st5" d="M30.3,64.3c0.2-0.1,0.3,0,0.5,0c0.2,0,0.3,0.1,0.4,0.2c-0.2,0.1-0.3,0-0.5,0
						C30.7,64.5,30.5,64.4,30.3,64.3z"/>
					<path id="eydlib7ehv1119_1_" class="st5" d="M38.9,42.8l-0.4-1.3l-0.3-0.3l-0.4-0.1c-1,1.4-3.8,1.3-4.3,1.4
						c-0.6,0.1-0.5,1.4-0.5,1.4l0.4,2.5l0.4,0.3h0.8l1.4-0.3l1.3-0.4l0.9-0.7l0.7-0.8l0.2-1.3L38.9,42.8z M38.3,43.9
						c-0.3,0.1-0.6-0.3-0.8-0.9c-0.2-0.6-0.1-1.1,0.2-1.2c0.3-0.1,0.6,0.3,0.8,0.9C38.7,43.3,38.6,43.8,38.3,43.9z"/>
				</g>
			</g>
		</g>
	</g>
	<g id="eydlib7ehv114">
		<path id="eydlib7ehv115" class="st11" d="M66.6,51.7l0.3,0.4l1-1.3L67,49.2l-0.9,1.7l0.4,0.6L66.6,51.7z"/>
		<path id="eydlib7ehv116" class="st12" d="M66.9,52.2l-0.3-0.5h0.1L66.9,52.2l1.1-1.4l-0.9-1.7l-0.9,1.7l0.4,0.6h-0.1l-0.4-0.6l0,0
			l0.8-1.8l1,1.9L66.9,52.2z"/>
		<path id="eydlib7ehv117" class="st12" d="M66.9,49.2L66.9,49.2l-0.1,2.2h0.1V49.2z"/>
		<path id="eydlib7ehv118" class="st12" d="M66.9,51.3L66,50.9v-0.1L66.9,51.3l1-0.4V51L66.9,51.3z"/>
		<path id="eydlib7ehv119" class="st12" d="M66.9,51.4L66.9,51.4l-0.1,0.8h0.1V51.4z"/>
	</g>
	<g id="eydlib7ehv114_1_">
		<path id="eydlib7ehv115_1_" class="st11" d="M32.9,51.7l0.3,0.4l1-1.3l-0.9-1.7l-0.9,1.7l0.4,0.6L32.9,51.7z"/>
		<path id="eydlib7ehv116_1_" class="st12" d="M33.2,52.2l-0.3-0.5h0.1L33.2,52.2l1.1-1.4l-0.9-1.7l-0.9,1.7l0.4,0.6h-0.1l-0.5-0.6
			l0,0l0.9-1.8l1,1.9L33.2,52.2z"/>
		<path id="eydlib7ehv117_1_" class="st12" d="M33.2,49.2L33.2,49.2l-0.1,2.2h0.1V49.2z"/>
		<path id="eydlib7ehv118_1_" class="st12" d="M33.2,51.3l-0.9-0.4v-0.1L33.2,51.3l1-0.4V51L33.2,51.3z"/>
		<path id="eydlib7ehv119_1_" class="st12" d="M33.2,51.4L33.2,51.4l-0.1,0.8h0.1V51.4z"/>
	</g>
</g>
<g>
	<path class="st4" d="M59.9,90.1l1.6-0.9l0.1,0.1c0.2,0.3,0.3,0.6,0.3,0.8c0,0.2,0,0.5,0,0.8c-0.1,0.6-0.5,1.1-1,1.4
		c-0.5,0.3-1.1,0.4-1.7,0.2c-0.6-0.2-1.1-0.5-1.4-1.1c-0.3-0.5-0.4-1.1-0.2-1.7s0.5-1.1,1.1-1.4c0.3-0.2,0.6-0.3,0.9-0.3
		c0.3,0,0.7,0,1.1,0.2l-0.2,0.6c-0.5-0.2-1-0.2-1.5,0c-0.4,0.2-0.7,0.6-0.8,1c-0.1,0.4-0.1,0.8,0.2,1.3c0.2,0.4,0.6,0.7,1.1,0.8
		c0.4,0.1,0.8,0,1.1-0.2c0.3-0.2,0.5-0.4,0.6-0.7c0.1-0.3,0.1-0.6,0-0.9l-0.9,0.5L59.9,90.1z"/>
	
		<rect x="63.5" y="85.8" transform="matrix(0.8665 -0.4992 0.4992 0.8665 -35.3781 43.6104)" class="st4" width="0.7" height="4.4"/>
	<polygon class="st4" points="66.6,84.5 68.5,87.8 67.9,88.1 66,84.9 65.2,85.4 64.9,84.8 67.2,83.5 67.5,84 	"/>
	<path class="st4" d="M71.8,81.1l0.4,0.7c-0.5-0.1-0.9,0-1.3,0.2c-0.4,0.2-0.6,0.6-0.7,1c-0.1,0.4,0,0.9,0.2,1.3
		c0.2,0.4,0.6,0.7,1,0.8c0.4,0.1,0.8,0.1,1.2-0.2c0.2-0.1,0.4-0.2,0.5-0.4c0.1-0.1,0.1-0.2,0.2-0.3c0.1-0.1,0.1-0.2,0.2-0.4l0.4,0.7
		c-0.2,0.4-0.5,0.7-0.9,0.9c-0.5,0.3-1.1,0.4-1.7,0.2c-0.6-0.2-1.1-0.5-1.4-1c-0.3-0.5-0.4-1-0.3-1.6c0.1-0.7,0.5-1.2,1.1-1.6
		C71,81.2,71.3,81.1,71.8,81.1"/>
	<path class="st13" d="M74.5,81c-0.3-0.5-0.4-1.1-0.2-1.7c0.2-0.6,0.5-1.1,1.1-1.4c0.5-0.3,1.1-0.4,1.7-0.2c0.6,0.2,1.1,0.5,1.4,1.1
		c0.3,0.5,0.4,1.1,0.2,1.7c-0.2,0.6-0.5,1.1-1.1,1.4c-0.5,0.3-1,0.4-1.6,0.3C75.4,81.9,74.9,81.6,74.5,81 M75.1,80.6
		c0.2,0.4,0.6,0.7,1,0.8c0.4,0.1,0.8,0.1,1.2-0.2c0.4-0.2,0.7-0.6,0.8-1c0.1-0.4,0.1-0.9-0.2-1.3c-0.2-0.4-0.6-0.7-1-0.8
		c-0.4-0.1-0.8-0.1-1.2,0.2c-0.4,0.2-0.6,0.6-0.8,1C74.8,79.8,74.9,80.2,75.1,80.6"/>
	<rect x="80.5" y="76" transform="matrix(0.8663 -0.4995 0.4995 0.8663 -28.2394 50.8187)" class="st4" width="0.7" height="4.4"/>
	<polygon class="st4" points="84.4,78.6 82.1,74.6 86.5,75.9 85,73.2 85.6,72.9 87.9,76.9 83.5,75.6 85,78.3 	"/>
</g>
</svg>
